<?xml version="1.0" encoding="iso-8859-1"?>
<!-- Uploaded to: SVG Repo, www.svgrepo.com, Generator: SVG Repo Mixer Tools -->
<!DOCTYPE svg PUBLIC "-//W3C//DTD SVG 1.1//EN" "http://www.w3.org/Graphics/SVG/1.1/DTD/svg11.dtd">
<svg fill="currrent" height="800px" width="800px" version="1.1" id="Capa_1" xmlns="http://www.w3.org/2000/svg" xmlns:xlink="http://www.w3.org/1999/xlink"
	 viewBox="0 0 297 297" xml:space="preserve">
<g>
	<path d="M146.401,93.093l68.032-68.433C206.746,10.674,191.527,0,176.097,0c-11.804,0-22.422,5.194-29.697,13.425
		C139.124,5.194,128.507,0,116.704,0c-15.43,0-30.649,10.674-38.336,24.661L146.401,93.093z"/>
	<path d="M39.593,136.615c0,15.62,10.919,31.02,25.137,38.623l67.951-68.345L64.729,38.55c-14.217,7.602-25.137,23-25.137,38.619
		c0,11.816,5.194,22.441,13.424,29.724C44.787,114.174,39.593,124.801,39.593,136.615z"/>
	<path d="M257.34,236.27c-1.223-27.77-18.975-50.264-29.247-61.042c14.206-7.606,25.115-22.996,25.115-38.607
		c0-11.815-5.194-22.443-13.425-29.726c8.23-7.281,13.425-17.907,13.425-29.723c0-15.618-10.919-31.018-25.135-38.622
		l-67.951,68.344l67.923,68.417l-13.939,14.327l-67.705-68.944l-68.034,68.433c7.685,13.988,22.905,24.661,38.335,24.661
		c11.803,0,22.42-5.194,29.696-13.424c7.275,8.23,17.893,13.424,29.696,13.424c15.251,0,30.291-10.432,38.061-24.179
		c8.324,8.885,22.352,26.829,23.227,47.641c0.628,14.971-5.826,29.334-19.185,42.695c-3.901,3.901-3.901,10.228,0.001,14.129
		c1.951,1.952,4.507,2.927,7.064,2.927s5.115-0.976,7.065-2.927C249.844,276.557,258.259,257.108,257.34,236.27z"/>
</g>
</svg>