<?xml version="1.0" encoding="utf-8"?>
<!-- Uploaded to: SVG Repo, www.svgrepo.com, Generator: SVG Repo Mixer Tools -->
<svg fill="current" width="800px" height="800px" viewBox="-6 0 32 32" version="1.1" xmlns="http://www.w3.org/2000/svg">
<title>present</title>
<path d="M14.188 10.844h3.781c0.906 0 1.656 0.719 1.656 1.656v5.688h-9v-6.625c-0.313-0.094-0.594-0.219-0.781-0.406-0.031 0-0.031-0.031-0.063-0.031 0 0 0 0.031-0.031 0.031-0.219 0.188-0.469 0.313-0.75 0.406v6.625h-9v-5.688c0-0.938 0.719-1.656 1.625-1.656h3.813c-0.438-0.219-0.844-0.531-1.188-0.813-1.5-1.438-1.781-3.438-0.594-4.563 0.5-0.438 1.156-0.688 1.875-0.688 1.031 0 2.094 0.406 3 1.25 0.5 0.469 0.969 1.125 1.25 1.75 0.313-0.625 0.781-1.281 1.281-1.75 0.875-0.844 2-1.25 3-1.25 0.75 0 1.406 0.25 1.875 0.688 1.188 1.125 0.906 3.125-0.625 4.563-0.313 0.281-0.719 0.594-1.125 0.813zM8.625 9.938c0.125-0.281-0.188-1.719-1.219-2.688-0.531-0.5-1.25-0.781-1.875-0.781-0.188 0-0.5 0.031-0.719 0.219-0.063 0.063-0.25 0.188-0.25 0.531 0 0.406 0.25 1.031 0.844 1.563 0.75 0.719 1.938 1.219 2.813 1.219 0.281 0 0.406-0.063 0.406-0.063zM11 9.938c0 0 0.156 0.063 0.406 0.063 0.875 0 2.063-0.5 2.813-1.219 0.594-0.531 0.781-1.156 0.781-1.563 0-0.344-0.156-0.469-0.188-0.531-0.219-0.188-0.563-0.219-0.75-0.219-0.594 0-1.344 0.281-1.875 0.781-1 0.969-1.344 2.375-1.188 2.719v-0.031zM9 27.188h-7.375c-0.906 0-1.625-0.719-1.625-1.625v-5.719h9v7.344zM17.969 27.188h-7.344v-7.344h9v5.719c0 0.906-0.75 1.625-1.656 1.625z"></path>
</svg>