<?xml version="1.0" encoding="iso-8859-1"?>
<!-- Uploaded to: SVG Repo, www.svgrepo.com, Generator: SVG Repo Mixer Tools -->
<svg fill="current" height="800px" width="800px" version="1.1" id="Layer_1" xmlns="http://www.w3.org/2000/svg" xmlns:xlink="http://www.w3.org/1999/xlink"
	 viewBox="0 0 512 512" xml:space="preserve">
<g>
	<g>
		<path d="M370.141,104.001c3.621-5.556,6.114-11.88,7.324-18.784c3.589-20.464-4.463-42.904-22.094-61.566l-0.734-0.734
			C338.994,8.14,320.53,0.001,302.65,0.001c-19.861,0-36.981,10.425-45.819,27.894c-0.241,0.471-0.523,1.023-0.831,1.638
			c-0.307-0.613-0.586-1.165-0.829-1.634C246.334,10.428,229.211,0,209.348,0c-17.88,0-36.341,8.138-51.984,22.916l-0.735,0.734
			c-17.631,18.662-25.684,41.104-22.095,61.568c1.212,6.903,3.703,13.227,7.324,18.783H6.095v134.095h12.19V512h475.429V238.097
			h12.19V104.001H370.141z M274.305,93.514c0.573-10.941,4.921-29.263,15.063-48.92l0.082-0.16c2.662-5.289,6.983-7.862,13.2-7.862
			c8.258,0,17.891,4.576,26.492,12.573c10.857,11.676,13.483,23.002,12.3,29.753c-0.791,4.514-3.276,7.765-7.591,9.938l-0.16,0.082
			c-14.549,7.508-35.816,15.082-50.527,15.082h-0.002c-4.411,0-6.832-0.72-7.817-1.201c-0.589-1.067-0.958-2.868-1.07-5.268
			C274.32,96.201,274.331,94.861,274.305,93.514z M182.858,49.145c8.603-7.997,18.233-12.573,26.49-12.573
			c6.22,0,10.539,2.572,13.202,7.862l0.081,0.16c10.144,19.661,14.492,37.987,15.061,48.928c-0.024,1.343-0.015,2.678,0.031,4.006
			c-0.112,2.403-0.479,4.206-1.07,5.272c-0.985,0.482-3.405,1.202-7.814,1.202c-14.714-0.001-35.983-7.575-50.532-15.083
			l-0.161-0.082c-4.314-2.172-6.797-5.424-7.589-9.936C169.373,72.149,172,60.821,182.858,49.145z M188.952,475.429H54.857V238.097
			h134.095V475.429z M188.952,201.524H42.667v-60.952h146.286V201.524z M286.476,475.429h-60.952V238.097h60.952V475.429z
			 M286.476,201.524h-60.952v-60.952h57.637h0.005h3.311V201.524z M457.143,475.429H323.048V238.097h134.095V475.429z
			 M469.333,201.526H323.048v-60.952h146.286V201.526z"/>
	</g>
</g>
</svg>