<svg width="28" height="28" viewBox="0 0 28 28" fill="currentColor" xmlns="http://www.w3.org/2000/svg">
    <path d="M1.925 0.875H0.875V1.925H1.925V0.875Z" fill="white"/>
    <path d="M2.975 0.875H1.925V1.925H2.975V0.875Z" fill="white"/>
    <path d="M4.025 0.875H2.975V1.925H4.025V0.875Z" fill="white"/>
    <path d="M5.075 0.875H4.025V1.925H5.075V0.875Z" fill="white"/>
    <path d="M6.125 0.875H5.075V1.925H6.125V0.875Z" fill="white"/>
    <path d="M7.175 0.875H6.125V1.925H7.175V0.875Z" fill="white"/>
    <path d="M8.225 0.875H7.175V1.925H8.225V0.875Z" fill="white"/>
    <path d="M10.325 0.875H9.275V1.925H10.325V0.875Z" fill="white"/>
    <path d="M13.475 0.875H12.425V1.925H13.475V0.875Z" fill="white"/>
    <path d="M16.625 0.875H15.575V1.925H16.625V0.875Z" fill="white"/>
    <path d="M18.725 0.875H17.675V1.925H18.725V0.875Z" fill="white"/>
    <path d="M20.825 0.875H19.775V1.925H20.825V0.875Z" fill="white"/>
    <path d="M21.875 0.875H20.825V1.925H21.875V0.875Z" fill="white"/>
    <path d="M22.925 0.875H21.875V1.925H22.925V0.875Z" fill="white"/>
    <path d="M23.975 0.875H22.925V1.925H23.975V0.875Z" fill="white"/>
    <path d="M25.025 0.875H23.975V1.925H25.025V0.875Z" fill="white"/>
    <path d="M26.075 0.875H25.025V1.925H26.075V0.875Z" fill="white"/>
    <path d="M27.125 0.875H26.075V1.925H27.125V0.875Z" fill="white"/>
    <path d="M1.925 1.925H0.875V2.975H1.925V1.925Z" fill="white"/>
    <path d="M8.225 1.925H7.175L7.175 2.975H8.225V1.925Z" fill="white"/>
    <path d="M11.375 1.925H10.325V2.975H11.375V1.925Z" fill="white"/>
    <path d="M12.425 1.925H11.375V2.975H12.425V1.925Z" fill="white"/>
    <path d="M15.575 1.925H14.525V2.975H15.575V1.925Z" fill="white"/>
    <path d="M16.625 1.925H15.575V2.975H16.625V1.925Z" fill="white"/>
    <path d="M18.725 1.925H17.675V2.975H18.725V1.925Z" fill="white"/>
    <path d="M20.825 1.925H19.775V2.975H20.825V1.925Z" fill="white"/>
    <path d="M27.125 1.925H26.075V2.975H27.125V1.925Z" fill="white"/>
    <path d="M1.925 2.975H0.875V4.025H1.925V2.975Z" fill="white"/>
    <path d="M4.025 2.975H2.975V4.025H4.025V2.975Z" fill="white"/>
    <path d="M5.075 2.975H4.025V4.025H5.075V2.975Z" fill="white"/>
    <path d="M6.125 2.975H5.075V4.025H6.125V2.975Z" fill="white"/>
    <path d="M8.225 2.975H7.175V4.025H8.225V2.975Z" fill="white"/>
    <path d="M10.325 2.975H9.275V4.025H10.325V2.975Z" fill="white"/>
    <path d="M11.375 2.975H10.325V4.025H11.375V2.975Z" fill="white"/>
    <path d="M15.575 2.975H14.525V4.025H15.575V2.975Z" fill="white"/>
    <path d="M16.625 2.975H15.575V4.025H16.625V2.975Z" fill="white"/>
    <path d="M17.675 2.975H16.625V4.025H17.675V2.975Z" fill="white"/>
    <path d="M18.725 2.975H17.675V4.025H18.725V2.975Z" fill="white"/>
    <path d="M20.825 2.975H19.775V4.025H20.825V2.975Z" fill="white"/>
    <path d="M22.925 2.975H21.875V4.025H22.925V2.975Z" fill="white"/>
    <path d="M23.975 2.975H22.925V4.025H23.975V2.975Z" fill="white"/>
    <path d="M25.025 2.975H23.975V4.025H25.025V2.975Z" fill="white"/>
    <path d="M27.125 2.975H26.075V4.025H27.125V2.975Z" fill="white"/>
    <path d="M1.925 4.025H0.875V5.075H1.925V4.025Z" fill="white"/>
    <path d="M4.025 4.025H2.975V5.075H4.025V4.025Z" fill="white"/>
    <path d="M5.075 4.025H4.025V5.075H5.075V4.025Z" fill="white"/>
    <path d="M6.125 4.025H5.075V5.075H6.125V4.025Z" fill="white"/>
    <path d="M8.225 4.025H7.175V5.075H8.225V4.025Z" fill="white"/>
    <path d="M11.375 4.025H10.325V5.075H11.375V4.025Z" fill="white"/>
    <path d="M14.525 4.025H13.475V5.075H14.525V4.025Z" fill="white"/>
    <path d="M20.825 4.025H19.775V5.075H20.825V4.025Z" fill="white"/>
    <path d="M22.925 4.025H21.875V5.075H22.925V4.025Z" fill="white"/>
    <path d="M23.975 4.025H22.925V5.075H23.975V4.025Z" fill="white"/>
    <path d="M25.025 4.025H23.975V5.075H25.025V4.025Z" fill="white"/>
    <path d="M27.125 4.025H26.075V5.075H27.125V4.025Z" fill="white"/>
    <path d="M1.925 5.075H0.875V6.125H1.925V5.075Z" fill="white"/>
    <path d="M4.025 5.075H2.975V6.125H4.025V5.075Z" fill="white"/>
    <path d="M5.075 5.075H4.025V6.125H5.075V5.075Z" fill="white"/>
    <path d="M6.125 5.075H5.075V6.125H6.125V5.075Z" fill="white"/>
    <path d="M8.225 5.075H7.175V6.125H8.225V5.075Z" fill="white"/>
    <path d="M11.375 5.075H10.325V6.125H11.375V5.075Z" fill="white"/>
    <path d="M13.475 5.075H12.425V6.125H13.475V5.075Z" fill="white"/>
    <path d="M15.575 5.075H14.525V6.125H15.575V5.075Z" fill="white"/>
    <path d="M16.625 5.075H15.575V6.125H16.625V5.075Z" fill="white"/>
    <path d="M17.675 5.075H16.625V6.125H17.675V5.075Z" fill="white"/>
    <path d="M20.825 5.075H19.775V6.125H20.825V5.075Z" fill="white"/>
    <path d="M22.925 5.075H21.875V6.125H22.925V5.075Z" fill="white"/>
    <path d="M23.975 5.075H22.925V6.125H23.975V5.075Z" fill="white"/>
    <path d="M25.025 5.075H23.975V6.125H25.025V5.075Z" fill="white"/>
    <path d="M27.125 5.075H26.075V6.125H27.125V5.075Z" fill="white"/>
    <path d="M1.925 6.125H0.875V7.175H1.925V6.125Z" fill="white"/>
    <path d="M8.225 6.125H7.175V7.175H8.225V6.125Z" fill="white"/>
    <path d="M14.525 6.125H13.475V7.175H14.525V6.125Z" fill="white"/>
    <path d="M18.725 6.125H17.675V7.175H18.725V6.125Z" fill="white"/>
    <path d="M20.825 6.125H19.775V7.175H20.825V6.125Z" fill="white"/>
    <path d="M27.125 6.125H26.075V7.175H27.125V6.125Z" fill="white"/>
    <path d="M1.925 7.175H0.875V8.225H1.925V7.175Z" fill="white"/>
    <path d="M2.975 7.175L1.925 7.175V8.225H2.975V7.175Z" fill="white"/>
    <path d="M4.025 7.175H2.975V8.225H4.025V7.175Z" fill="white"/>
    <path d="M5.075 7.175H4.025V8.225H5.075V7.175Z" fill="white"/>
    <path d="M6.125 7.175H5.075V8.225H6.125V7.175Z" fill="white"/>
    <path d="M7.175 7.175L6.125 7.175V8.225H7.175L7.175 7.175Z" fill="white"/>
    <path d="M8.225 7.175H7.175L7.175 8.225H8.225V7.175Z" fill="white"/>
    <path d="M10.325 7.175H9.275V8.225H10.325V7.175Z" fill="white"/>
    <path d="M12.425 7.175H11.375V8.225H12.425V7.175Z" fill="white"/>
    <path d="M14.525 7.175H13.475V8.225H14.525V7.175Z" fill="white"/>
    <path d="M16.625 7.175H15.575V8.225H16.625V7.175Z" fill="white"/>
    <path d="M18.725 7.175H17.675V8.225H18.725V7.175Z" fill="white"/>
    <path d="M20.825 7.175H19.775V8.225H20.825V7.175Z" fill="white"/>
    <path d="M21.875 7.175L20.825 7.175V8.225H21.875V7.175Z" fill="white"/>
    <path d="M22.925 7.175H21.875V8.225H22.925V7.175Z" fill="white"/>
    <path d="M23.975 7.175H22.925V8.225H23.975V7.175Z" fill="white"/>
    <path d="M25.025 7.175H23.975V8.225H25.025V7.175Z" fill="white"/>
    <path d="M26.075 7.175L25.025 7.175V8.225H26.075V7.175Z" fill="white"/>
    <path d="M27.125 7.175H26.075V8.225H27.125V7.175Z" fill="white"/>
    <path d="M10.325 8.225H9.275V9.275H10.325V8.225Z" fill="white"/>
    <path d="M11.375 8.225H10.325V9.275H11.375V8.225Z" fill="white"/>
    <path d="M14.525 8.225H13.475V9.275H14.525V8.225Z" fill="white"/>
    <path d="M15.575 8.225H14.525V9.275H15.575V8.225Z" fill="white"/>
    <path d="M16.625 8.225H15.575V9.275H16.625V8.225Z" fill="white"/>
    <path d="M18.725 8.225H17.675V9.275H18.725V8.225Z" fill="white"/>
    <path d="M1.925 9.275H0.875V10.325H1.925V9.275Z" fill="white"/>
    <path d="M4.025 9.275H2.975V10.325H4.025V9.275Z" fill="white"/>
    <path d="M7.175 9.275H6.125V10.325H7.175V9.275Z" fill="white"/>
    <path d="M8.225 9.275H7.175V10.325H8.225V9.275Z" fill="white"/>
    <path d="M11.375 9.275H10.325V10.325H11.375V9.275Z" fill="white"/>
    <path d="M12.425 9.275H11.375V10.325H12.425V9.275Z" fill="white"/>
    <path d="M14.525 9.275H13.475V10.325H14.525V9.275Z" fill="white"/>
    <path d="M19.775 9.275H18.725V10.325H19.775V9.275Z" fill="white"/>
    <path d="M20.825 9.275H19.775V10.325H20.825V9.275Z" fill="white"/>
    <path d="M25.025 9.275H23.975V10.325H25.025V9.275Z" fill="white"/>
    <path d="M27.125 9.275H26.075V10.325H27.125V9.275Z" fill="white"/>
    <path d="M1.925 10.325H0.875V11.375H1.925V10.325Z" fill="white"/>
    <path d="M7.175 10.325H6.125V11.375H7.175V10.325Z" fill="white"/>
    <path d="M9.275 10.325H8.225V11.375H9.275V10.325Z" fill="white"/>
    <path d="M16.625 10.325H15.575V11.375H16.625V10.325Z" fill="white"/>
    <path d="M17.675 10.325H16.625V11.375H17.675V10.325Z" fill="white"/>
    <path d="M18.725 10.325H17.675V11.375H18.725V10.325Z" fill="white"/>
    <path d="M22.925 10.325H21.875V11.375H22.925V10.325Z" fill="white"/>
    <path d="M23.975 10.325H22.925V11.375H23.975V10.325Z" fill="white"/>
    <path d="M25.025 10.325H23.975V11.375H25.025V10.325Z" fill="white"/>
    <path d="M27.125 10.325H26.075V11.375H27.125V10.325Z" fill="white"/>
    <path d="M2.975 11.375H1.925V12.425H2.975V11.375Z" fill="white"/>
    <path d="M6.125 11.375H5.075V12.425H6.125V11.375Z" fill="white"/>
    <path d="M7.175 11.375H6.125V12.425H7.175V11.375Z" fill="white"/>
    <path d="M8.225 11.375H7.175V12.425H8.225V11.375Z" fill="white"/>
    <path d="M9.275 11.375H8.225V12.425H9.275V11.375Z" fill="white"/>
    <path d="M11.375 11.375H10.325V12.425H11.375V11.375Z" fill="white"/>
    <path d="M12.425 11.375H11.375V12.425H12.425V11.375Z" fill="white"/>
    <path d="M13.475 11.375H12.425V12.425H13.475V11.375Z" fill="white"/>
    <path d="M18.725 11.375H17.675V12.425H18.725V11.375Z" fill="white"/>
    <path d="M21.875 11.375H20.825V12.425H21.875V11.375Z" fill="white"/>
    <path d="M23.975 11.375H22.925V12.425H23.975V11.375Z" fill="white"/>
    <path d="M25.025 11.375H23.975V12.425H25.025V11.375Z" fill="white"/>
    <path d="M27.125 11.375H26.075V12.425H27.125V11.375Z" fill="white"/>
    <path d="M2.975 12.425H1.925V13.475H2.975V12.425Z" fill="white"/>
    <path d="M4.025 12.425H2.975V13.475H4.025V12.425Z" fill="white"/>
    <path d="M5.075 12.425H4.025V13.475H5.075V12.425Z" fill="white"/>
    <path d="M7.175 12.425H6.125V13.475H7.175V12.425Z" fill="white"/>
    <path d="M9.275 12.425H8.225V13.475H9.275V12.425Z" fill="white"/>
    <path d="M10.325 12.425H9.275V13.475H10.325V12.425Z" fill="white"/>
    <path d="M13.475 12.425H12.425V13.475H13.475V12.425Z" fill="white"/>
    <path d="M17.675 12.425H16.625V13.475H17.675V12.425Z" fill="white"/>
    <path d="M20.825 12.425H19.775V13.475H20.825V12.425Z" fill="white"/>
    <path d="M22.925 12.425H21.875V13.475H22.925V12.425Z" fill="white"/>
    <path d="M26.075 12.425H25.025V13.475H26.075V12.425Z" fill="white"/>
    <path d="M4.025 13.475H2.975V14.525H4.025V13.475Z" fill="white"/>
    <path d="M7.175 13.475H6.125V14.525H7.175V13.475Z" fill="white"/>
    <path d="M8.225 13.475H7.175V14.525H8.225V13.475Z" fill="white"/>
    <path d="M10.325 13.475H9.275V14.525H10.325V13.475Z" fill="white"/>
    <path d="M12.425 13.475H11.375V14.525H12.425V13.475Z" fill="white"/>
    <path d="M14.525 13.475H13.475V14.525H14.525V13.475Z" fill="white"/>
    <path d="M15.575 13.475H14.525V14.525H15.575V13.475Z" fill="white"/>
    <path d="M16.625 13.475H15.575V14.525H16.625L16.625 13.475Z" fill="white"/>
    <path d="M17.675 13.475H16.625L16.625 14.525H17.675V13.475Z" fill="white"/>
    <path d="M22.925 13.475H21.875V14.525H22.925V13.475Z" fill="white"/>
    <path d="M23.975 13.475H22.925V14.525H23.975V13.475Z" fill="white"/>
    <path d="M25.025 13.475H23.975V14.525H25.025V13.475Z" fill="white"/>
    <path d="M26.075 13.475H25.025V14.525H26.075V13.475Z" fill="white"/>
    <path d="M2.975 14.525H1.925V15.575H2.975V14.525Z" fill="white"/>
    <path d="M6.125 14.525H5.075V15.575H6.125V14.525Z" fill="white"/>
    <path d="M10.325 14.525H9.275V15.575H10.325V14.525Z" fill="white"/>
    <path d="M11.375 14.525H10.325V15.575H11.375V14.525Z" fill="white"/>
    <path d="M13.475 14.525H12.425V15.575H13.475V14.525Z" fill="white"/>
    <path d="M14.525 14.525H13.475V15.575H14.525V14.525Z" fill="white"/>
    <path d="M16.625 14.525H15.575V15.575H16.625V14.525Z" fill="white"/>
    <path d="M18.725 14.525H17.675V15.575H18.725V14.525Z" fill="white"/>
    <path d="M19.775 14.525H18.725V15.575H19.775V14.525Z" fill="white"/>
    <path d="M21.875 14.525H20.825V15.575H21.875V14.525Z" fill="white"/>
    <path d="M22.925 14.525H21.875V15.575H22.925V14.525Z" fill="white"/>
    <path d="M25.025 14.525H23.975V15.575H25.025V14.525Z" fill="white"/>
    <path d="M27.125 14.525H26.075V15.575H27.125V14.525Z" fill="white"/>
    <path d="M2.975 15.575H1.925V16.625H2.975V15.575Z" fill="white"/>
    <path d="M4.025 15.575H2.975V16.625H4.025V15.575Z" fill="white"/>
    <path d="M5.075 15.575H4.025V16.625H5.075V15.575Z" fill="white"/>
    <path d="M6.125 15.575H5.075V16.625H6.125V15.575Z" fill="white"/>
    <path d="M8.225 15.575H7.175V16.625H8.225V15.575Z" fill="white"/>
    <path d="M9.275 15.575H8.225V16.625H9.275V15.575Z" fill="white"/>
    <path d="M10.325 15.575H9.275V16.625H10.325V15.575Z" fill="white"/>
    <path d="M11.375 15.575H10.325V16.625H11.375V15.575Z" fill="white"/>
    <path d="M16.625 15.575H15.575V16.625H16.625V15.575Z" fill="white"/>
    <path d="M17.675 15.575H16.625V16.625H17.675V15.575Z" fill="white"/>
    <path d="M18.725 15.575H17.675V16.625H18.725V15.575Z" fill="white"/>
    <path d="M19.775 15.575H18.725V16.625H19.775V15.575Z" fill="white"/>
    <path d="M25.025 15.575H23.975V16.625H25.025V15.575Z" fill="white"/>
    <path d="M26.075 15.575H25.025V16.625H26.075V15.575Z" fill="white"/>
    <path d="M27.125 15.575H26.075V16.625H27.125V15.575Z" fill="white"/>
    <path d="M1.925 16.625L0.875 16.625V17.675H1.925V16.625Z" fill="white"/>
    <path d="M4.025 16.625H2.975V17.675H4.025V16.625Z" fill="white"/>
    <path d="M6.125 16.625H5.075V17.675H6.125V16.625Z" fill="white"/>
    <path d="M7.175 16.625H6.125V17.675H7.175L7.175 16.625Z" fill="white"/>
    <path d="M9.275 16.625H8.225V17.675H9.275V16.625Z" fill="white"/>
    <path d="M12.425 16.625L11.375 16.625V17.675H12.425V16.625Z" fill="white"/>
    <path d="M14.525 16.625H13.475V17.675H14.525V16.625Z" fill="white"/>
    <path d="M17.675 16.625H16.625L16.625 17.675H17.675V16.625Z" fill="white"/>
    <path d="M20.825 16.625L19.775 16.625V17.675H20.825V16.625Z" fill="white"/>
    <path d="M22.925 16.625H21.875V17.675H22.925V16.625Z" fill="white"/>
    <path d="M23.975 16.625L22.925 16.625V17.675H23.975V16.625Z" fill="white"/>
    <path d="M1.925 17.675H0.875V18.725H1.925V17.675Z" fill="white"/>
    <path d="M2.975 17.675H1.925V18.725H2.975V17.675Z" fill="white"/>
    <path d="M4.025 17.675H2.975V18.725H4.025V17.675Z" fill="white"/>
    <path d="M8.225 17.675H7.175L7.175 18.725H8.225V17.675Z" fill="white"/>
    <path d="M9.275 17.675H8.225V18.725H9.275V17.675Z" fill="white"/>
    <path d="M14.525 17.675H13.475V18.725H14.525V17.675Z" fill="white"/>
    <path d="M15.575 17.675H14.525V18.725H15.575V17.675Z" fill="white"/>
    <path d="M16.625 17.675H15.575V18.725H16.625L16.625 17.675Z" fill="white"/>
    <path d="M17.675 17.675H16.625L16.625 18.725H17.675V17.675Z" fill="white"/>
    <path d="M18.725 17.675H17.675V18.725H18.725V17.675Z" fill="white"/>
    <path d="M19.775 17.675H18.725V18.725H19.775V17.675Z" fill="white"/>
    <path d="M20.825 17.675H19.775V18.725H20.825V17.675Z" fill="white"/>
    <path d="M21.875 17.675H20.825V18.725H21.875V17.675Z" fill="white"/>
    <path d="M22.925 17.675H21.875V18.725H22.925V17.675Z" fill="white"/>
    <path d="M23.975 17.675H22.925V18.725H23.975V17.675Z" fill="white"/>
    <path d="M26.075 17.675H25.025V18.725H26.075V17.675Z" fill="white"/>
    <path d="M27.125 17.675H26.075V18.725H27.125V17.675Z" fill="white"/>
    <path d="M13.475 18.725H12.425V19.775H13.475V18.725Z" fill="white"/>
    <path d="M14.525 18.725H13.475V19.775H14.525V18.725Z" fill="white"/>
    <path d="M18.725 18.725H17.675V19.775H18.725V18.725Z" fill="white"/>
    <path d="M22.925 18.725H21.875V19.775H22.925V18.725Z" fill="white"/>
    <path d="M23.975 18.725H22.925V19.775H23.975V18.725Z" fill="white"/>
    <path d="M25.025 18.725H23.975V19.775H25.025V18.725Z" fill="white"/>
    <path d="M1.925 19.775H0.875V20.825H1.925V19.775Z" fill="white"/>
    <path d="M2.975 19.775H1.925V20.825H2.975V19.775Z" fill="white"/>
    <path d="M4.025 19.775H2.975V20.825H4.025V19.775Z" fill="white"/>
    <path d="M5.075 19.775H4.025V20.825H5.075V19.775Z" fill="white"/>
    <path d="M6.125 19.775H5.075V20.825H6.125V19.775Z" fill="white"/>
    <path d="M7.175 19.775H6.125V20.825H7.175V19.775Z" fill="white"/>
    <path d="M8.225 19.775H7.175V20.825H8.225V19.775Z" fill="white"/>
    <path d="M11.375 19.775H10.325V20.825H11.375V19.775Z" fill="white"/>
    <path d="M12.425 19.775H11.375V20.825H12.425V19.775Z" fill="white"/>
    <path d="M14.525 19.775H13.475V20.825H14.525V19.775Z" fill="white"/>
    <path d="M15.575 19.775H14.525V20.825H15.575V19.775Z" fill="white"/>
    <path d="M17.675 19.775H16.625V20.825H17.675V19.775Z" fill="white"/>
    <path d="M18.725 19.775H17.675V20.825H18.725V19.775Z" fill="white"/>
    <path d="M20.825 19.775H19.775V20.825H20.825V19.775Z" fill="white"/>
    <path d="M22.925 19.775H21.875V20.825H22.925V19.775Z" fill="white"/>
    <path d="M26.075 19.775H25.025V20.825H26.075V19.775Z" fill="white"/>
    <path d="M27.125 19.775H26.075V20.825H27.125V19.775Z" fill="white"/>
    <path d="M1.925 20.825H0.875V21.875H1.925V20.825Z" fill="white"/>
    <path d="M8.225 20.825H7.175L7.175 21.875H8.225V20.825Z" fill="white"/>
    <path d="M10.325 20.825H9.275V21.875H10.325V20.825Z" fill="white"/>
    <path d="M11.375 20.825H10.325V21.875H11.375V20.825Z" fill="white"/>
    <path d="M12.425 20.825H11.375V21.875H12.425V20.825Z" fill="white"/>
    <path d="M13.475 20.825H12.425V21.875H13.475V20.825Z" fill="white"/>
    <path d="M14.525 20.825H13.475V21.875H14.525V20.825Z" fill="white"/>
    <path d="M15.575 20.825H14.525V21.875H15.575V20.825Z" fill="white"/>
    <path d="M16.625 20.825H15.575V21.875H16.625L16.625 20.825Z" fill="white"/>
    <path d="M18.725 20.825H17.675V21.875H18.725V20.825Z" fill="white"/>
    <path d="M22.925 20.825H21.875V21.875H22.925V20.825Z" fill="white"/>
    <path d="M23.975 20.825H22.925V21.875H23.975V20.825Z" fill="white"/>
    <path d="M27.125 20.825H26.075V21.875H27.125V20.825Z" fill="white"/>
    <path d="M1.925 21.875H0.875V22.925H1.925V21.875Z" fill="white"/>
    <path d="M4.025 21.875H2.975V22.925H4.025V21.875Z" fill="white"/>
    <path d="M5.075 21.875H4.025V22.925H5.075V21.875Z" fill="white"/>
    <path d="M6.125 21.875H5.075V22.925H6.125V21.875Z" fill="white"/>
    <path d="M8.225 21.875H7.175V22.925H8.225V21.875Z" fill="white"/>
    <path d="M12.425 21.875H11.375V22.925H12.425V21.875Z" fill="white"/>
    <path d="M13.475 21.875H12.425V22.925H13.475V21.875Z" fill="white"/>
    <path d="M16.625 21.875H15.575V22.925H16.625V21.875Z" fill="white"/>
    <path d="M18.725 21.875H17.675V22.925H18.725V21.875Z" fill="white"/>
    <path d="M19.775 21.875H18.725V22.925H19.775V21.875Z" fill="white"/>
    <path d="M20.825 21.875H19.775V22.925H20.825V21.875Z" fill="white"/>
    <path d="M21.875 21.875H20.825V22.925H21.875V21.875Z" fill="white"/>
    <path d="M22.925 21.875H21.875V22.925H22.925V21.875Z" fill="white"/>
    <path d="M23.975 21.875H22.925V22.925H23.975V21.875Z" fill="white"/>
    <path d="M25.025 21.875H23.975V22.925H25.025V21.875Z" fill="white"/>
    <path d="M26.075 21.875H25.025V22.925H26.075V21.875Z" fill="white"/>
    <path d="M27.125 21.875H26.075V22.925H27.125V21.875Z" fill="white"/>
    <path d="M1.925 22.925H0.875V23.975H1.925V22.925Z" fill="white"/>
    <path d="M4.025 22.925H2.975V23.975H4.025V22.925Z" fill="white"/>
    <path d="M5.075 22.925H4.025V23.975H5.075V22.925Z" fill="white"/>
    <path d="M6.125 22.925H5.075V23.975H6.125V22.925Z" fill="white"/>
    <path d="M8.225 22.925H7.175V23.975H8.225V22.925Z" fill="white"/>
    <path d="M11.375 22.925H10.325V23.975H11.375V22.925Z" fill="white"/>
    <path d="M14.525 22.925H13.475V23.975H14.525V22.925Z" fill="white"/>
    <path d="M15.575 22.925H14.525V23.975H15.575V22.925Z" fill="white"/>
    <path d="M16.625 22.925H15.575V23.975H16.625V22.925Z" fill="white"/>
    <path d="M17.675 22.925H16.625V23.975H17.675V22.925Z" fill="white"/>
    <path d="M20.825 22.925H19.775V23.975H20.825V22.925Z" fill="white"/>
    <path d="M21.875 22.925H20.825V23.975H21.875V22.925Z" fill="white"/>
    <path d="M23.975 22.925H22.925V23.975H23.975V22.925Z" fill="white"/>
    <path d="M26.075 22.925H25.025V23.975H26.075V22.925Z" fill="white"/>
    <path d="M1.925 23.975H0.875V25.025H1.925V23.975Z" fill="white"/>
    <path d="M4.025 23.975H2.975V25.025H4.025V23.975Z" fill="white"/>
    <path d="M5.075 23.975H4.025V25.025H5.075V23.975Z" fill="white"/>
    <path d="M6.125 23.975H5.075V25.025H6.125V23.975Z" fill="white"/>
    <path d="M8.225 23.975H7.175V25.025H8.225V23.975Z" fill="white"/>
    <path d="M10.325 23.975H9.275V25.025H10.325V23.975Z" fill="white"/>
    <path d="M15.575 23.975H14.525V25.025H15.575V23.975Z" fill="white"/>
    <path d="M20.825 23.975H19.775V25.025H20.825V23.975Z" fill="white"/>
    <path d="M25.025 23.975H23.975V25.025H25.025V23.975Z" fill="white"/>
    <path d="M1.925 25.025H0.875V26.075H1.925V25.025Z" fill="white"/>
    <path d="M8.225 25.025H7.175V26.075H8.225V25.025Z" fill="white"/>
    <path d="M11.375 25.025H10.325V26.075H11.375V25.025Z" fill="white"/>
    <path d="M13.475 25.025H12.425V26.075H13.475V25.025Z" fill="white"/>
    <path d="M15.575 25.025H14.525V26.075H15.575V25.025Z" fill="white"/>
    <path d="M17.675 25.025H16.625V26.075H17.675V25.025Z" fill="white"/>
    <path d="M19.775 25.025H18.725V26.075H19.775V25.025Z" fill="white"/>
    <path d="M21.875 25.025H20.825V26.075H21.875V25.025Z" fill="white"/>
    <path d="M25.025 25.025H23.975V26.075H25.025V25.025Z" fill="white"/>
    <path d="M1.925 26.075H0.875V27.125H1.925V26.075Z" fill="white"/>
    <path d="M2.975 26.075H1.925V27.125H2.975V26.075Z" fill="white"/>
    <path d="M4.025 26.075H2.975V27.125H4.025V26.075Z" fill="white"/>
    <path d="M5.075 26.075H4.025V27.125H5.075V26.075Z" fill="white"/>
    <path d="M6.125 26.075H5.075V27.125H6.125V26.075Z" fill="white"/>
    <path d="M7.175 26.075H6.125V27.125H7.175L7.175 26.075Z" fill="white"/>
    <path d="M8.225 26.075H7.175L7.175 27.125H8.225V26.075Z" fill="white"/>
    <path d="M10.325 26.075H9.275V27.125H10.325V26.075Z" fill="white"/>
    <path d="M11.375 26.075H10.325V27.125H11.375V26.075Z" fill="white"/>
    <path d="M12.425 26.075H11.375V27.125H12.425V26.075Z" fill="white"/>
    <path d="M13.475 26.075H12.425V27.125H13.475V26.075Z" fill="white"/>
    <path d="M14.525 26.075H13.475V27.125H14.525V26.075Z" fill="white"/>
    <path d="M15.575 26.075H14.525V27.125H15.575V26.075Z" fill="white"/>
    <path d="M16.625 26.075H15.575V27.125H16.625L16.625 26.075Z" fill="white"/>
    <path d="M17.675 26.075H16.625L16.625 27.125H17.675V26.075Z" fill="white"/>
    <path d="M18.725 26.075H17.675V27.125H18.725V26.075Z" fill="white"/>
    <path d="M19.775 26.075H18.725V27.125H19.775V26.075Z" fill="white"/>
    <path d="M20.825 26.075H19.775V27.125H20.825V26.075Z" fill="white"/>
    <path d="M25.025 26.075H23.975V27.125H25.025V26.075Z" fill="white"/>
    <path d="M27.125 26.075H26.075V27.125H27.125V26.075Z" fill="white"/>
</svg>
